<svg width="197" height="46" viewBox="0 0 197 46" fill="none" xmlns="http://www.w3.org/2000/svg">
  <path
    d="M57.5603 6.0005C57.7857 5.74361 58.075 5.55108 58.3988 5.44191C58.7227 5.33273 59.0696 5.31092 59.4045 5.37892C59.7395 5.44692 60.0505 5.60229 60.3061 5.82911C60.5618 6.05594 60.7529 6.34646 60.8603 6.67091C63.7403 14.7909 66.3503 23.0106 69.2503 31.1206C71.9836 23.1873 74.737 15.2608 77.5103 7.34083C77.8203 6.47083 78.2903 5.34083 79.4003 5.34083C80.5303 5.14083 81.1403 6.26066 81.4003 7.16066C84.2003 15.2107 86.8703 23.3106 89.7303 31.3306C92.6003 23.0706 95.3703 14.7605 98.2703 6.5005C98.7503 4.5905 102.27 5.19054 101.51 7.29054C98.5103 16.1905 95.3103 25.0209 92.2403 33.9009C92.0046 34.7481 91.6404 35.5538 91.1603 36.2905C90.9459 36.4983 90.6876 36.6556 90.4046 36.7505C90.1215 36.8454 89.8208 36.8758 89.5245 36.8394C89.2281 36.8029 88.9437 36.7008 88.6921 36.5401C88.4405 36.3793 88.228 36.1642 88.0703 35.9107C87.5216 34.773 87.0667 33.5926 86.7103 32.3809C84.3103 25.4409 81.9303 18.5008 79.5103 11.5708C79.2523 11.8974 79.0527 12.266 78.9203 12.6607C76.4203 19.8807 73.9203 27.0808 71.3903 34.3008C71.1769 35.0082 70.8637 35.6817 70.4603 36.3008C70.2516 36.5052 70.0006 36.6613 69.725 36.7583C69.4495 36.8553 69.156 36.8904 68.8653 36.8618C68.5746 36.8332 68.2937 36.7416 68.0423 36.5928C67.7909 36.444 67.5752 36.2416 67.4103 36.0005C66.9037 34.9597 66.4823 33.8795 66.1503 32.7705C63.2903 24.5305 60.4203 16.2939 57.5403 8.06056C57.3803 7.40056 57.0803 6.6205 57.5603 6.0005Z"
    fill="#1E2C3C" />
  <path
    d="M107.3 5.7706C108.3 4.9306 110.3 5.3606 110.3 6.7706C110.41 10.7706 110.3 14.771 110.3 18.691C113.09 13.761 120.88 13.5509 124.3 17.8209C126.58 20.5409 127.02 24.3008 126.7 27.7208C126.615 29.1566 126.235 30.5595 125.583 31.8414C124.93 33.1233 124.021 34.2569 122.91 35.171C119.04 38.101 112.58 37.3107 110.2 32.8507C110.252 33.801 110.228 34.7541 110.13 35.7008C109.69 37.3708 106.67 37.1209 106.75 35.2809C106.64 26.1109 106.75 16.9406 106.7 7.7706C106.84 7.1206 106.71 6.2806 107.3 5.7706ZM115.03 17.961C113.813 18.3299 112.732 19.0509 111.924 20.0333C111.116 21.0157 110.617 22.2155 110.49 23.481C110.07 26.271 110.17 29.4309 111.94 31.7809C112.51 32.468 113.219 33.0267 114.021 33.4195C114.822 33.8124 115.698 34.0304 116.59 34.0597C117.483 34.089 118.371 33.9289 119.197 33.5894C120.022 33.25 120.767 32.7392 121.38 32.0909C123.02 30.1609 123.38 27.5006 123.28 25.0406C123.306 22.9044 122.499 20.8421 121.03 19.2906C120.219 18.5857 119.244 18.0947 118.194 17.8624C117.144 17.6301 116.053 17.6643 115.02 17.961H115.03Z"
    fill="#1E2C3C" />
  <path
    d="M163.9 6.80043C163.9 4.80043 167.35 4.89043 167.37 6.80043C167.5 13.6904 167.37 20.5804 167.42 27.4704C167.42 29.2404 167.21 31.2501 168.42 32.7501C169.63 34.2501 171.6 33.7503 173.22 33.8703C173.22 34.7603 173.61 36.0102 172.64 36.5402C170.22 37.3502 167.1 36.9502 165.44 34.8502C164.1 33.2002 163.87 30.9803 163.9 28.9303C163.9 21.5603 163.81 14.1804 163.9 6.80043Z"
    fill="#1E2C3C" />
  <path
    d="M193.35 6.84055C193.35 4.94055 196.09 4.84024 196.85 6.27024V35.7502C196.2 37.0202 194.08 37.1905 193.49 35.8005C193.345 34.831 193.305 33.8485 193.37 32.8703C192.522 34.2791 191.275 35.4043 189.786 36.1023C188.298 36.8003 186.635 37.0395 185.01 36.7903C183.144 36.5918 181.39 35.8076 179.997 34.55C178.605 33.2925 177.647 31.6261 177.26 29.7903C176.36 25.8903 176.58 21.3805 179.04 18.0705C182.43 13.5105 190.48 13.6206 193.36 18.6906C193.3 14.7406 193.3 10.7905 193.35 6.84055ZM185.62 17.7605C184.344 18.0072 183.177 18.6452 182.281 19.5862C181.385 20.5271 180.804 21.7242 180.62 23.0105C180.09 25.9605 180.15 29.3803 182.1 31.8303C182.683 32.4943 183.398 33.0291 184.2 33.3991C185.002 33.7692 185.873 33.9665 186.756 33.9787C187.639 33.991 188.515 33.8176 189.327 33.4699C190.139 33.1223 190.869 32.6083 191.47 31.9607C192.855 30.1007 193.523 27.8031 193.35 25.4904C193.35 23.2804 192.81 20.8905 191.18 19.3005C190.438 18.6271 189.549 18.1368 188.583 17.8694C187.617 17.6019 186.603 17.5648 185.62 17.7605Z"
    fill="#1E2C3C" />
  <path
    d="M132.07 16.6005C131.82 14.6005 135.23 14.2808 135.54 16.1508C135.73 20.4108 135.54 24.6906 135.63 28.9506C135.68 30.5406 136.09 32.3507 137.52 33.2607C138.439 33.7683 139.476 34.0257 140.526 34.0073C141.576 33.9889 142.602 33.6952 143.503 33.1557C144.404 32.6162 145.148 31.85 145.66 30.9331C146.171 30.0161 146.434 28.9806 146.42 27.9306C146.53 24.0706 146.36 20.2008 146.5 16.3408C146.5 14.8708 148.56 14.5508 149.5 15.3408C150.11 15.9308 149.94 16.8608 150 17.6308C150 23.2108 150 28.7908 150 34.3808C150 35.1108 150.06 36.0005 149.41 36.5205C149.189 36.6818 148.935 36.7921 148.666 36.8432C148.397 36.8944 148.12 36.8852 147.855 36.8164C147.59 36.7475 147.343 36.6209 147.133 36.4453C146.923 36.2696 146.755 36.0494 146.64 35.8007C146.507 34.9072 146.473 34.0015 146.54 33.1005C144.33 37.1005 138.72 38.0009 134.99 35.7309C132.78 34.2709 132.09 31.4409 132.04 28.9409C132.04 24.8409 132.02 20.7205 132.07 16.6005Z"
    fill="#1E2C3C" />
  <path
    d="M155.72 15.3699C156.78 14.5599 158.77 15.16 158.67 16.66C158.76 22.39 158.67 28.1302 158.72 33.8602C158.807 34.6429 158.679 35.4346 158.35 36.1502C157.47 37.2502 155.24 36.8501 155.2 35.3001C155.05 29.5801 155.2 23.8602 155.13 18.1502C155.2 17.2202 154.95 16.0799 155.72 15.3699Z"
    fill="#1E2C3C" />
  <path
    d="M156.13 5.49091C156.643 5.30542 157.2 5.28074 157.727 5.42011C158.254 5.55947 158.726 5.85604 159.08 6.27069C159.395 6.80686 159.488 7.44535 159.338 8.04901C159.189 8.65268 158.809 9.17354 158.28 9.50067C157.881 9.66603 157.452 9.74707 157.02 9.73846C156.588 9.72986 156.162 9.63199 155.77 9.45087C154.3 8.66087 154.39 5.91091 156.13 5.49091Z"
    fill="#2CCDA4" />
  <path
    d="M22.5298 45.1602C34.9451 45.1602 45.0098 35.096 45.0098 22.6807C45.0098 10.2653 34.9451 0.200195 22.5298 0.200195C10.1144 0.200195 0.0498047 10.2653 0.0498047 22.6807C0.0498047 35.096 10.1144 45.1602 22.5298 45.1602Z"
    fill="#2CCDA4" />
  <path
    d="M15.8098 13.6504C15.704 13.4246 15.6557 13.1762 15.6692 12.9272C15.6828 12.6783 15.7578 12.4366 15.8875 12.2236C16.0172 12.0107 16.1977 11.8332 16.4127 11.707C16.6278 11.5808 16.8707 11.5094 17.1198 11.5C20.3698 11.41 23.6298 11.5002 26.8798 11.4502C27.6398 11.5102 28.5698 11.3102 29.1398 11.9702C29.7098 12.6302 29.4498 13.6602 29.1398 14.4102C27.7398 17.6102 26.3198 20.8 24.9198 24C24.3198 25.23 23.8298 26.6701 22.5098 27.3101C21.0998 26.1501 20.5099 24.36 19.7799 22.75C18.4699 19.71 17.0298 16.7204 15.8098 13.6504Z"
    fill="white" />
  <path
    d="M8.16949 24.9409C9.81616 21.1809 11.4828 17.4242 13.1695 13.6709C14.7995 16.8609 16.1695 20.1807 17.6995 23.4307C18.9395 26.0107 19.8895 28.8107 21.8195 30.9907C18.1095 30.9307 14.3995 30.9909 10.6995 30.9409C9.97234 30.9295 9.26931 30.6782 8.69967 30.2261C8.13003 29.774 7.72571 29.1465 7.54949 28.4409C7.37568 27.238 7.59302 26.011 8.16949 24.9409Z"
    fill="white" />
  <path
    d="M25.7507 27.3301C27.8907 22.7801 29.8907 18.1504 32.0607 13.6104C33.7207 17.4604 35.4507 21.2801 37.1107 25.1201C37.7471 26.2553 37.9089 27.5961 37.5607 28.8501C37.2978 29.5009 36.8388 30.054 36.2475 30.4321C35.6561 30.8102 34.9617 30.9949 34.2607 30.9604C30.6507 30.9604 27.0407 30.9604 23.4307 30.9604C24.3702 29.865 25.1511 28.6427 25.7507 27.3301Z"
    fill="white" />
</svg>